# xmcd
# 
# Track frame offsets:
#     150
#     19616
#     37719
#     58457
#     78860
#     96704
#     113392
#     134610
#     156835
#     174704
#     192685
#     206301
# 
# Disc length: 3153
# 
# Revision: 0
# Processed by: cddbd v1.5.2PL0 Copyright (c) Steve Scherf et al.
# Submitted via: fre:ac v1.0.17
# 
DISCID=a10c4f0c
DTITLE=dido - No Angel
DYEAR=0
DGENRE=
TTITLE0=Sconosciuto
TTITLE1=Sconosciuto
TTITLE2=Sconosciuto
TTITLE3=Sconosciuto
TTITLE4=Sconosciuto
TTITLE5=Sconosciuto
TTITLE6=Sconosciuto
TTITLE7=Sconosciuto
TTITLE8=Sconosciuto
TTITLE9=Sconosciuto
TTITLE10=Sconosciuto
TTITLE11=Sconosciuto
EXTD=
EXTT0=
EXTT1=
EXTT2=
EXTT3=
EXTT4=
EXTT5=
EXTT6=
EXTT7=
EXTT8=
EXTT9=
EXTT10=
EXTT11=
PLAYORDER=
